<svg id="Layer_1" data-name="Layer 1" xmlns="http://www.w3.org/2000/svg" viewBox="0 0 80.68 89.87"><defs><style>.cls-1,.cls-2{fill:#f2f2f2;}.cls-2{stroke:#f2f2f2;stroke-linecap:round;stroke-miterlimit:10;stroke-width:1.5px;}</style></defs><title>logo</title><path class="cls-1" d="M58.28,49.7a4,4,0,0,1-3.7-1.88c-3.08-4.09-6.37-8-9.5-12-1.29-1.66-2.59-2.73-4.62-1.63-.28.15-.68,0-1,.1a10.29,10.29,0,0,0-2.77,1.22c-1.3,1-2.38,2.37-3.66,3.44-.35.29-1.07,0-1.62,0,.11-.52.07-1.19.36-1.53,2.13-2.51,4.32-5,6.52-7.4a3,3,0,0,1,1.3-.86c6.94-2.07,7.15-2.06,13.3,2.12A4,4,0,0,0,56,32a32.85,32.85,0,0,1,15.27,1.16c.41.14,1.25,0,1.37-.31.42-1-.52-1-1-1.19-3.68-1.29-7.53-2.15-11.3-1.5-4.46.77-8.08-.69-11.59-3.35-.49-.38-1.15-.88-1.65-.79-3,.55-6.07.84-8.81,2.08a21.28,21.28,0,0,1-4.87,1.72A7.74,7.74,0,0,0,29,32.23c-4.28,4.52-4.31,4.48-10.23,4.08h-.14c-7.42-.52-12.83-7-12.59-15s6-14,13.36-14h2.69V5.77c-1.2,0-2.23,0-3.26,0C11.6,5.94,5.53,12,4.73,19.94S8.46,35.43,15.54,37.29c2.3.61,4.77.46,7.16.66a5.33,5.33,0,0,0,5-2.18c.82-1.07,1.91-1.88,2.79-2.89,1.23-1.4,2.78-1.41,4.74-1.67-2,2.22-3.65,4.1-5.3,6-.27.32-.59,1-.46,1.26,1.2,2.73,2.95,3.15,4.72,1.46,1.18-1.13,2.19-2.6,3.54-3.34s3.17-.9,4.78-1.26c.16,0,.42.23.57.41Q49,43.24,55,50.73a1.42,1.42,0,0,1-.28,2.15c-.75.67-1.25.34-1.77-.38-1.44-2-2.9-4-4.39-6-.47-.62-.78-1.77-1.81-1.11a4.81,4.81,0,0,0,.68,2c1.13,1.67,2.4,3.23,3.56,4.87A1.89,1.89,0,0,1,50.52,55c-1,.82-1.31-.25-1.74-.85-1-1.36-1.86-2.78-2.86-4.1-.3-.39-.88-.52-1.34-.77a5.18,5.18,0,0,0,.3,1.73c.83,1.39,1.84,2.66,2.69,4a2.39,2.39,0,0,1-.89,3.08c-1,.82-1.31-.31-1.75-.87-.77-1-1.41-2.09-2.2-3.06-.29-.36-.83-.45-1.25-.67a4.87,4.87,0,0,0,.2,1.62c.58,1.07,1.33,2,2,3.05A2.74,2.74,0,0,1,43,61.82c-1.08,1-1.48-.31-2-.86a9.05,9.05,0,0,1-1.17-1.75c-.77-1.29-1.52-2.6-2.34-4L35.86,57c-1.1-1.07-2.06-2.15-3.15-3-1.88-1.55-4.09-.94-6.05-.56-6.42,1.26-12.74,1.42-19-.69-.35-.11-.68,1.38-.33,1.46a67.48,67.48,0,0,0,7.78,1.59,64.3,64.3,0,0,0,7.09,0,8.2,8.2,0,0,1,.07,1.51c-.19,1.44.28,2.28,1.6,2.57,1.67.37,3.51.13,4.86,1.64,0,0,.1,0,.14,0,.71.31,1.41.61,2.11.94.39.18.81.65,1.12.56,1.34-.36,2,.67,2.72,1.5,1.47,1.59,2.41,1.54,3.79-.17.51-.64,1-1.28,1.54-1.9,2.26,1.84,3.38,1.59,4.8-.94a7,7,0,0,1,.42-.82,4.33,4.33,0,0,1,.71-.64c.92-.75,1.84-1.49,2.77-2.22,1.34-1.06,2.68-2.13,4-3.16.11-.09.36.07.55.09a2.94,2.94,0,0,0,3.14-2.08c.3-1.47,1-1.64,2.11-1.5.84.11,1.7,0,2.53.2,7.29,1.38,12,9.26,10.58,17.73-1.16,7-6.47,11.92-12.88,11.92H51.81v1.62c2.4,0,4.67,0,6.93,0,5.71-.1,10.15-2.83,12.84-8.42a17.84,17.84,0,0,0-.52-17.18C68.16,52,63.76,49.5,58.28,49.7Zm-34,8.64a3.7,3.7,0,0,1-.58-2c0-.28.54-.75.9-.85,1-.26,2.09-.38,3.61-.63a35.9,35.9,0,0,1-2.48,3.42A1.34,1.34,0,0,1,24.31,58.34ZM29.15,60A1.51,1.51,0,0,1,28,57.84a15.52,15.52,0,0,1,1.7-2.48,1.64,1.64,0,0,1,1.49-.42c1.42.51,1.49,1,.47,2.31-.6.73-1.2,1.46-1.82,2.17A4.71,4.71,0,0,1,29.15,60Zm3.25,1.46c-.13.13-.87-.49-1.53-.88l3-3.67c.26.8.76,1.58.58,1.91A11.39,11.39,0,0,1,32.4,61.42Zm6.14.53c-1.82,2.76-2.17,2.73-4.13-.22l2.81-3.81a13.94,13.94,0,0,1,1.39,2.3A2.29,2.29,0,0,1,38.54,62Z"/><line class="cls-2" x1="22.13" y1="6.55" x2="65.14" y2="6.55"/><line class="cls-2" x1="11.07" y1="81.89" x2="54.08" y2="81.89"/></svg>