<svg xmlns="http://www.w3.org/2000/svg" width="581.999" height="582" viewBox="0 0 581.999 582"><defs><style>.a{fill:#5f2f69;opacity:0.29;}</style></defs><path class="a" d="M-2972,597a293.156,293.156,0,0,1-58.647-5.912,289.571,289.571,0,0,1-54.624-16.956,291.026,291.026,0,0,1-49.43-26.83,293.1,293.1,0,0,1-43.067-35.534A293.07,293.07,0,0,1-3213.3,468.7a290.985,290.985,0,0,1-26.83-49.431,289.588,289.588,0,0,1-16.956-54.624A293.162,293.162,0,0,1-3263,306a293.161,293.161,0,0,1,5.912-58.647,289.554,289.554,0,0,1,16.956-54.624,290.99,290.99,0,0,1,26.83-49.43,293.066,293.066,0,0,1,35.533-43.067A293.082,293.082,0,0,1-3134.7,64.7a291.008,291.008,0,0,1,49.43-26.83,289.566,289.566,0,0,1,54.624-16.956A293.163,293.163,0,0,1-2972,15a293.142,293.142,0,0,1,58.647,5.912,289.5,289.5,0,0,1,54.623,16.956A290.968,290.968,0,0,1-2809.3,64.7a292.988,292.988,0,0,1,43.067,35.534A293.064,293.064,0,0,1-2730.7,143.3a291.034,291.034,0,0,1,26.83,49.43,289.482,289.482,0,0,1,16.956,54.624A293.176,293.176,0,0,1-2681,306a293.176,293.176,0,0,1-5.912,58.647,289.535,289.535,0,0,1-16.956,54.624A291.06,291.06,0,0,1-2730.7,468.7a293.066,293.066,0,0,1-35.534,43.067A293,293,0,0,1-2809.3,547.3a290.987,290.987,0,0,1-49.43,26.83,289.534,289.534,0,0,1-54.623,16.956A293.134,293.134,0,0,1-2972,597Zm1.16-470.7c-99.727,0-180.861,81.134-180.861,180.861s81.134,180.859,180.861,180.859,180.86-81.133,180.86-180.859S-2871.114,126.3-2970.84,126.3Z" transform="translate(3263 -15)"/></svg>